<svg xmlns="http://www.w3.org/2000/svg" viewBox="0 0 368 368" width="368" height="368">
	<style>
		tspan { white-space:pre }
		.shp0 { fill: #ffffff;stroke: #ffffff;stroke-width: 21.404 } 
		.shp1 { fill: #00a870 } 
		.shp2 { fill: #354245 } 
	</style>
	<path id="Path 4646" class="shp0" d="M356.06 182.52C355.61 179.73 354.06 172.26 349.57 163.3C346.18 156.49 341.82 150.36 336.62 145.04C335.9 144.3 335.62 143.26 335.88 142.27C336.37 140.42 336.77 138.56 337.1 136.7C339.06 125.48 338.22 113.46 334.58 100.97L334.22 99.81L333.24 98.43C331.48 96.2 326.5 90.43 318.17 84.81C311.41 80.22 304.09 76.86 296.36 74.79C295.34 74.52 294.55 73.73 294.29 72.7C293.69 70.33 292.96 67.98 292.12 65.7C288.13 55.03 281.32 45.08 271.88 36.14L270.99 35.31L269.42 34.61C266.78 33.59 259.55 31.14 249.56 30.5C247.91 30.38 246.25 30.34 244.63 30.34C238.23 30.34 231.92 31.17 225.85 32.82C224.83 33.09 223.77 32.81 223.03 32.06C221.35 30.36 219.57 28.75 217.74 27.24C208.92 20.02 198.04 14.85 185.36 11.88L184.03 11.59L182.5 11.8C179.7 12.24 172.24 13.76 163.25 18.25C156.09 21.81 149.67 26.41 144.15 31.98C143.41 32.72 142.36 33.01 141.34 32.74C135.66 31.21 129.76 30.4 123.78 30.34L121.97 30.34C120.62 30.36 119.28 30.41 117.95 30.5C107.96 31.14 100.73 33.59 98.08 34.61L96.77 35.15L95.61 36.14C86.16 45.08 79.37 55.03 75.39 65.7C74.54 67.98 73.8 70.33 73.2 72.71C72.94 73.73 72.15 74.52 71.13 74.79C63.41 76.86 56.08 80.22 49.33 84.81C41.02 90.42 36.02 96.19 34.27 98.41L33.42 99.52L32.92 100.98C29.29 113.46 28.44 125.48 30.4 136.7C30.72 138.55 31.13 140.42 31.62 142.27C31.88 143.26 31.6 144.3 30.89 145.04C25.68 150.36 21.33 156.5 17.94 163.3C13.43 172.26 11.9 179.73 11.45 182.52L11.23 184.07L11.53 185.42C14.47 198.09 19.6 208.99 26.82 217.81C28.48 219.84 30.27 221.79 32.15 223.62C32.92 224.36 33.21 225.44 32.93 226.47C30.75 234.36 29.94 242.56 30.55 250.9C31.26 260.92 33.77 268.12 34.81 270.76L35.35 272.04L36.35 273.2C45.35 282.58 55.33 289.33 66.04 293.23C68.24 294.04 70.53 294.74 72.82 295.31C73.84 295.57 74.64 296.34 74.92 297.36C77.01 304.99 80.39 312.22 84.95 318.9C90.59 327.18 96.39 332.16 98.6 333.91L99.72 334.76L101.17 335.25C113.6 338.81 125.73 339.63 136.9 337.64C138.77 337.31 140.64 336.88 142.49 336.39C143.49 336.13 144.54 336.4 145.29 337.13C146.66 338.46 148.09 339.73 149.55 340.93C158.35 348.18 169.23 353.35 181.9 356.34L183.23 356.63L184.77 356.42C187.57 355.97 195.05 354.47 204.03 349.99C210.82 346.63 216.96 342.31 222.28 337.13C223.02 336.41 224.07 336.14 225.07 336.41C226.89 336.89 228.74 337.31 230.59 337.64C241.77 339.63 253.89 338.81 266.33 335.25L267.48 334.9L268.89 333.91C271.11 332.16 276.9 327.2 282.54 318.9C287.12 312.22 290.49 304.99 292.59 297.36C292.87 296.34 293.65 295.57 294.67 295.31C296.98 294.74 299.25 294.04 301.47 293.23C312.16 289.33 322.15 282.58 331.15 273.18L331.98 272.31L332.7 270.74C333.74 268.11 336.22 260.9 336.95 250.9C337.56 242.56 336.76 234.37 334.57 226.48C334.29 225.44 334.58 224.36 335.34 223.62C337.23 221.79 339.02 219.84 340.68 217.81C347.88 208.99 353.04 198.09 355.98 185.41L356.26 184.07L356.06 182.52Z" />
	<path id="Path 4647" fill-rule="evenodd" class="shp1" d="M356.26 184.07L355.97 185.41C353.03 198.08 347.88 208.99 340.67 217.81C338.65 220.28 336.42 222.64 334.07 224.8C336.64 233.2 337.59 241.97 336.94 250.9C336.22 260.9 333.73 268.1 332.69 270.74L331.97 272.3L331.15 273.18C322.15 282.57 312.15 289.32 301.46 293.22C298.71 294.22 295.87 295.06 293.01 295.71C290.95 303.94 287.43 311.74 282.53 318.9C276.89 327.19 271.1 332.15 268.87 333.9L267.48 334.89L266.32 335.24C253.88 338.81 241.77 339.63 230.58 337.64C228.19 337.21 225.81 336.65 223.46 335.95C217.86 341.66 211.32 346.37 204.01 349.98C195.04 354.47 187.56 355.96 184.76 356.41L183.23 356.63L181.89 356.33C169.23 353.35 158.33 348.17 149.54 340.93C147.65 339.37 145.81 337.71 144.09 335.94C141.72 336.63 139.31 337.21 136.89 337.64C125.72 339.63 113.59 338.81 101.16 335.24L99.71 334.75L98.6 333.9C96.37 332.15 90.58 327.18 84.95 318.9C80.06 311.74 76.52 303.94 74.48 295.71C71.61 295.06 68.77 294.22 66.03 293.22C55.32 289.32 45.34 282.57 36.34 273.19L35.34 272.04L34.8 270.75C33.76 268.11 31.26 260.91 30.55 250.9C29.9 241.97 30.86 233.2 33.4 224.8C31.05 222.64 28.84 220.28 26.81 217.81C19.6 208.99 14.45 198.08 11.51 185.42L11.22 184.07L11.44 182.51C11.89 179.73 13.42 172.26 17.92 163.29C21.57 155.98 26.32 149.45 32.05 143.86C31.37 141.5 30.8 139.09 30.39 136.69C28.43 125.47 29.28 113.46 32.91 100.97L33.41 99.52L34.26 98.4C36.02 96.18 41.02 90.42 49.32 84.8C56.55 79.88 64.45 76.38 72.78 74.36C73.47 71.42 74.32 68.5 75.38 65.69C79.36 55.02 86.16 45.07 95.6 36.14L96.76 35.14L98.07 34.61C100.71 33.58 107.94 31.14 117.93 30.49C119.27 30.4 120.62 30.35 121.96 30.33L123.76 30.33C130.33 30.4 136.77 31.37 142.96 33.19C148.74 27.08 155.56 22.05 163.25 18.24C172.23 13.75 179.69 12.24 182.49 11.8L184.02 11.58L185.36 11.87C198.03 14.85 208.91 20.02 217.73 27.23C220 29.1 222.17 31.12 224.21 33.28C230.77 31.32 237.65 30.33 244.62 30.33C246.24 30.33 247.89 30.38 249.55 30.49C259.54 31.14 266.77 33.58 269.41 34.61L270.98 35.31L271.87 36.14C281.32 45.07 288.13 55.02 292.11 65.69C293.15 68.5 294.02 71.42 294.69 74.36C303.03 76.38 310.92 79.88 318.16 84.8C326.49 90.42 331.47 96.19 333.23 98.42L334.21 99.81L334.58 100.96C338.21 113.46 339.06 125.47 337.1 136.69C336.67 139.09 336.12 141.49 335.43 143.86C341.16 149.45 345.92 155.98 349.56 163.29C354.05 172.26 355.6 179.73 356.05 182.51L356.26 184.07ZM294.63 286.7C295.97 286.31 297.31 285.88 298.61 285.4C308.04 281.96 316.94 275.96 325 267.58C325.74 265.68 328.02 259.26 328.64 250.3C329.14 243.56 328.59 236.93 327.03 230.49C320.91 234.8 314.02 238.17 306.5 240.57C300.37 242.52 293.93 243.82 287.34 244.43C292.08 255.17 294.66 265.83 295.02 276.1C295.15 279.67 295.01 283.22 294.63 286.7ZM72.47 276.1C72.83 265.83 75.41 255.17 80.14 244.43C73.55 243.82 67.11 242.52 60.98 240.57C53.47 238.17 46.58 234.8 40.47 230.49C38.89 236.93 38.34 243.58 38.84 250.28C39.48 259.26 41.73 265.69 42.48 267.59C50.53 275.93 59.42 281.96 68.87 285.4C70.17 285.88 71.5 286.31 72.86 286.72C72.47 283.21 72.34 279.65 72.47 276.1ZM71.36 83.38C65.21 85.24 59.37 88.03 53.98 91.69C46.71 96.62 42.39 101.53 40.83 103.5C37.6 114.7 36.84 125.37 38.57 135.26C38.73 136.12 38.9 136.98 39.1 137.87C42.27 135.52 45.67 133.39 49.25 131.58C57.8 127.21 67.61 124.35 78.42 123.12C76.07 117.77 74.25 112.24 72.99 106.7C71.23 98.81 70.68 90.98 71.36 83.38ZM177.76 69.08C171.53 60.39 164.44 53.48 156.66 48.51C153.13 46.25 149.41 44.36 145.58 42.86C143.02 46.07 140.75 49.59 138.86 53.3C134.64 61.51 131.99 71.07 130.98 81.7C145.57 74.16 161.29 69.92 177.76 69.08ZM183.69 20.03C181.12 20.45 174.73 21.8 166.96 25.69C161.26 28.5 156.1 32.09 151.57 36.35C154.86 37.81 158.07 39.55 161.11 41.5C169.47 46.83 177.07 54.11 183.73 63.18C190.4 54.13 198.02 46.83 206.36 41.5C209.34 39.6 212.45 37.91 215.65 36.48C214.58 35.48 213.51 34.54 212.46 33.67C204.69 27.3 195.01 22.71 183.69 20.03ZM294.5 106.7C293.24 112.26 291.42 117.77 289.07 123.12C299.88 124.35 309.69 127.21 318.24 131.58C321.81 133.39 325.22 135.52 328.39 137.87C328.58 136.98 328.76 136.1 328.91 135.26C330.65 125.37 329.89 114.68 326.66 103.5C325 101.42 320.71 96.57 313.52 91.7C308.11 88.03 302.26 85.24 296.11 83.38C296.81 90.98 296.26 98.81 294.5 106.7ZM312.36 167.61C318.37 161.15 322.9 154.03 325.82 146.43C322.35 143.57 318.52 141.06 314.47 138.99C306.25 134.79 296.7 132.16 286.06 131.17C293.83 146.13 298.12 162.27 298.83 179.2C303.83 175.76 308.38 171.87 312.36 167.61ZM286.52 236.15C292.56 235.59 298.43 234.42 303.98 232.65C311.6 230.21 318.45 226.69 324.34 222.16C322.94 218.69 321.2 215.3 319.18 212.07C314.26 204.27 307.37 197.12 298.73 190.84C297.82 206.76 293.72 221.98 286.52 236.15ZM277.22 236.94C278.05 235.48 278.86 233.98 279.63 232.47C286.13 219.61 289.9 205.91 290.84 191.74C291.21 186.23 291.03 179.48 290.91 177.66C290.07 163.26 286.41 149.44 280.04 136.55C279.03 134.55 277.99 132.6 276.93 130.74L276.29 129.66C275.12 127.67 273.89 125.7 272.6 123.83C264.69 112.19 254.73 102.35 242.98 94.56C241.51 93.59 239.97 92.62 238.42 91.7C237.86 91.38 237.31 91.05 236.76 90.74C235.17 89.82 233.48 88.93 231.74 88.05C218.96 81.65 205.21 77.94 190.89 77C188.64 76.84 186.4 76.77 184.21 76.75L183.27 76.75C181.09 76.77 178.84 76.84 176.6 77C162.28 77.94 148.52 81.65 135.74 88.05C133.8 89.02 131.9 90.06 130.08 91.11L129.06 91.7C127.15 92.84 125.31 94 123.63 95.14C112.26 102.83 102.59 112.49 94.87 123.83C93.6 125.7 92.37 127.66 91.19 129.64L90.58 130.7C89.49 132.6 88.44 134.58 87.45 136.55C81.08 149.44 77.42 163.26 76.56 177.66C76.43 179.87 76.37 182.03 76.37 184.11C76.37 184.32 76.49 189.61 76.64 191.74C77.65 206.02 81.42 219.73 87.87 232.47C88.6 233.94 89.41 235.45 90.25 236.94C90.67 237.68 91.1 238.4 91.53 239.12C92.33 240.47 93.19 241.83 94.08 243.17C102.07 255.29 112.28 265.52 124.38 273.56C126.21 274.79 128.05 275.93 129.89 277L131.05 277.66C132.92 278.71 134.86 279.74 136.81 280.69C149.03 286.64 162.11 290.16 175.7 291.16C178.07 291.33 180.53 291.44 182.99 291.45L183.73 291.46L184.49 291.45C186.96 291.44 189.41 291.33 191.79 291.16C205.37 290.16 218.46 286.64 230.68 280.69C232.88 279.61 235.05 278.45 237.14 277.27L237.28 277.18C239.46 275.92 241.63 274.57 243.73 273.15C255.56 265.18 265.54 255.09 273.42 243.17C274.3 241.82 275.15 240.46 275.95 239.12C276.39 238.4 276.81 237.68 277.22 236.94ZM286.38 104.87C288.18 96.86 288.56 88.99 287.54 81.44C283.64 80.84 279.67 80.63 275.67 80.8C266.44 81.16 256.82 83.53 247.06 87.88C260.38 96.65 271.91 108.3 280.57 121.71C283.15 116.21 285.11 110.57 286.38 104.87ZM91.83 80.8C87.78 80.63 83.84 80.84 79.94 81.44C78.91 88.99 79.31 96.87 81.09 104.87C82.38 110.57 84.33 116.21 86.91 121.71C95.57 108.3 107.11 96.65 120.43 87.88C110.67 83.53 101.05 81.16 91.83 80.8ZM285.71 72.82C285.29 71.35 284.83 69.97 284.33 68.61C280.8 59.19 274.76 50.35 266.32 42.33C264.33 41.56 257.91 39.37 249.03 38.79C242.48 38.35 236.09 38.88 229.98 40.33C234.46 46.6 237.98 53.69 240.43 61.46C242.33 67.41 243.58 73.65 244.2 80.05C254.75 75.42 265.22 72.88 275.33 72.49C278.86 72.35 282.27 72.46 285.71 72.82ZM235.98 81.42C235.44 75.39 234.28 69.54 232.51 63.96C230.02 56.07 226.34 49.03 221.6 42.99C217.88 44.45 214.27 46.32 210.84 48.5C203.05 53.48 195.95 60.39 189.72 69.08C205.99 69.91 221.53 74.06 235.98 81.42ZM68.66 179.2C69.37 162.27 73.64 146.13 81.41 131.17C70.78 132.16 61.24 134.79 53.02 138.98C48.96 141.06 45.14 143.55 41.67 146.43C44.59 154.03 49.12 161.16 55.13 167.61C59.11 171.87 63.65 175.76 68.66 179.2ZM43.15 222.16C49.03 226.69 55.87 230.21 63.52 232.65C69.06 234.42 74.93 235.59 80.95 236.15C73.76 221.98 69.66 206.76 68.75 190.84C60.11 197.12 53.23 204.26 48.31 212.07C46.28 215.3 44.54 218.69 43.15 222.16ZM49.06 173.28C43.18 166.97 38.51 160.01 35.22 152.57C31.31 156.87 27.99 161.73 25.36 167.01C21.32 175.06 19.98 181.74 19.66 183.75C22.34 195.13 26.9 204.77 33.23 212.54C34.28 213.82 35.42 215.09 36.6 216.31C37.95 213.34 39.52 210.42 41.28 207.64C46.51 199.34 53.66 191.76 62.55 185.08C57.61 181.55 53.07 177.58 49.06 173.28ZM81.49 288.51C89.22 289.54 97.17 289.09 105.17 287.24C110.85 285.93 116.5 283.93 121.97 281.33C108.42 272.7 96.63 261.14 87.75 247.78C83.43 257.56 81.08 267.19 80.76 276.4C80.62 280.46 80.87 284.54 81.49 288.51ZM83.51 297.1C85.39 303.15 88.17 308.89 91.81 314.18L91.87 314.31C96.73 321.45 101.68 325.74 103.66 327.31C114.81 330.48 125.6 331.2 135.44 329.43C136.3 329.28 137.19 329.11 138.09 328.9C133.24 322.37 129.47 314.91 126.87 306.68C125.18 301.3 123.99 295.65 123.32 289.86C118.03 292.22 112.54 294.07 107.05 295.34C99.15 297.18 91.26 297.78 83.51 297.1ZM131.36 286.7C131.9 292.75 133.04 298.62 134.8 304.17C137.45 312.59 141.41 320.03 146.6 326.3C154.2 323.36 161.31 318.81 167.73 312.77C171.75 308.98 175.48 304.66 178.78 299.93C178.61 299.66 178.46 299.4 178.32 299.15C161.79 298.39 146.01 294.2 131.36 286.7ZM152.77 332.74C153.44 333.35 154.14 333.95 154.8 334.49C162.58 340.88 172.26 345.49 183.59 348.17C185.82 347.8 192.43 346.46 200.31 342.53C205.61 339.93 210.45 336.65 214.76 332.75C207.33 329.43 200.37 324.75 194.06 318.83C190.36 315.35 186.89 311.45 183.73 307.24C180.59 311.45 177.12 315.35 173.41 318.83C167.13 324.74 160.19 329.42 152.77 332.74ZM199.75 312.77C206.19 318.82 213.33 323.37 220.94 326.33C223.83 322.85 226.34 319.04 228.44 314.96C232.66 306.77 235.33 297.23 236.35 286.6C221.64 294.16 205.77 298.39 189.16 299.15C189.02 299.4 188.86 299.66 188.71 299.93C192.01 304.66 195.72 308.98 199.75 312.77ZM229.49 328.92C230.37 329.12 231.22 329.3 232.04 329.43C241.9 331.2 252.67 330.48 263.83 327.31C265.54 325.94 270.68 321.54 275.67 314.21C279.32 308.89 282.1 303.15 283.98 297.1C276.24 297.78 268.34 297.18 260.44 295.35C255.01 294.08 249.6 292.27 244.35 289.94C243.05 300.62 240.18 310.31 235.83 318.78C233.99 322.33 231.87 325.75 229.49 328.92ZM285.98 288.51C286.63 284.54 286.87 280.47 286.71 276.41C286.39 267.19 284.06 257.56 279.74 247.78C270.86 261.14 259.06 272.7 245.52 281.33C251 283.93 256.64 285.93 262.32 287.24C270.31 289.09 278.25 289.54 285.98 288.51ZM326.21 207.64C327.96 210.43 329.53 213.34 330.88 216.31C332.07 215.09 333.19 213.82 334.24 212.54C340.6 204.76 345.17 195.06 347.83 183.74C347.45 181.56 346.11 174.94 342.14 167.03L342.1 166.94C339.45 161.63 336.14 156.83 332.27 152.56C328.96 160.01 324.31 166.97 318.42 173.28C314.4 177.58 309.86 181.55 304.93 185.08C313.83 191.76 320.97 199.34 326.21 207.64ZM137.14 40.24C132.52 39.18 127.74 38.63 122.86 38.63C121.4 38.63 119.94 38.69 118.49 38.79C109.52 39.37 103.08 41.59 101.16 42.32C92.71 50.36 86.67 59.2 83.16 68.6C82.66 69.94 82.2 71.36 81.77 72.82C84.25 72.56 86.77 72.42 89.25 72.42C90.2 72.42 91.17 72.45 92.15 72.49C102.1 72.86 112.42 75.34 122.83 79.84C124.01 68.55 126.91 58.35 131.47 49.5C133.13 46.27 135.03 43.17 137.14 40.24Z" />
	<path id="Path 4648" fill-rule="evenodd" class="shp2" d="M253.29 198.17L253.29 198.04C254.29 196.37 257.56 190.94 261.42 190.94C264.28 190.94 267.2 193.89 267.2 198.25L267.2 224.71C267.2 225.1 266.93 225.37 266.54 225.37L259.21 225.37C254.29 225.23 252.84 222.36 252.84 218.14C252.84 211.16 261.89 203.87 261.95 203.73L261.95 200.58C261.95 199.32 261.75 197.77 260.49 197.77C259.49 197.77 258.36 199.04 257.02 200.99C256.89 201.19 256.77 201.33 256.49 201.33C256.23 201.33 253.84 199.45 253.51 198.98C253.29 198.77 253.23 198.64 253.23 198.44C253.23 198.31 253.23 198.25 253.29 198.17ZM261.89 219.74L261.89 211.04L261.09 211.7C259.55 212.98 258.3 216.06 258.3 217.27C258.3 218.74 258.69 219.74 260.95 219.74L261.89 219.74ZM244.26 225.37C243.86 225.37 243.59 225.1 243.59 224.71L243.59 192.48C243.59 192.08 243.86 191.81 244.26 191.81L248.17 191.81C248.57 191.81 248.91 192.08 248.91 192.48L248.91 224.71C248.91 225.1 248.57 225.37 248.17 225.37L244.26 225.37ZM243.59 186.99C243.59 186.73 243.72 186.59 243.86 186.46L247.77 184.25C248.05 184.11 248.11 184.11 248.17 184.11C248.57 184.11 248.84 184.38 248.91 184.71L248.91 189.47C248.91 189.87 248.57 190.15 248.17 190.15L244.26 190.15C243.86 190.15 243.59 189.87 243.59 189.47L243.59 186.99ZM239 224.71C239 225.1 238.74 225.37 238.34 225.37L231.88 225.37C227.88 225.37 224.76 222.49 224.76 218.81L224.76 198.11C224.76 194.44 227.88 191.48 231.88 191.48C232.48 191.48 233.07 191.54 233.68 191.69L233.68 185.73C233.68 185.52 233.8 185.32 234.01 185.26L238.07 182.91C238.19 182.84 238.27 182.84 238.34 182.84C238.67 182.84 239 183.11 239 183.44L239 224.71ZM233.61 198.31C233.61 197.58 232.82 196.98 231.88 196.98C230.88 196.98 230.08 197.58 230.08 198.31L230.08 218.6C230.08 219.33 230.88 219.95 231.88 219.95L233.61 219.95L233.61 198.31ZM223.03 192.21L223.03 196.98C223.03 197.31 222.76 197.58 222.44 197.58C218.64 197.85 216.44 200.06 216.44 202.87L216.44 224.71C216.44 225.1 216.11 225.37 215.71 225.37L211.78 225.37C211.39 225.37 211.06 225.1 211.06 224.71L211.06 192.21C211.25 191.94 211.52 191.81 211.78 191.81C211.86 191.81 211.99 191.81 212.11 191.88C212.25 191.94 215.64 193.83 215.64 193.83C217.64 192.35 219.64 191.54 222.36 191.54C222.76 191.61 222.96 191.88 223.03 192.21ZM192.7 198.17L192.7 198.04C193.68 196.37 196.95 190.94 200.82 190.94C203.66 190.94 206.59 193.89 206.59 198.25L206.59 224.71C206.59 225.1 206.32 225.37 205.94 225.37L198.61 225.37C193.68 225.23 192.22 222.36 192.22 218.14C192.22 211.16 201.28 203.87 201.34 203.73L201.34 200.58C201.34 199.32 201.14 197.77 199.88 197.77C198.87 197.77 197.75 199.04 196.42 200.99C196.28 201.19 196.15 201.33 195.88 201.33C195.61 201.33 193.23 199.45 192.89 198.98C192.7 198.77 192.62 198.64 192.62 198.44C192.62 198.31 192.62 198.25 192.7 198.17ZM201.28 219.74L201.28 211.04L200.48 211.7C198.95 212.98 197.68 216.06 197.68 217.27C197.68 218.74 198.08 219.74 200.34 219.74L201.28 219.74ZM189.56 198.11L189.56 218.81C189.56 222.49 186.37 225.37 182.45 225.37L175.99 225.37C175.6 225.37 175.32 225.1 175.32 224.71L175.32 185.73C175.32 185.52 175.47 185.32 175.66 185.26L179.52 182.98C179.65 182.98 179.72 182.84 179.99 182.84C180.31 182.84 180.59 183.11 180.65 183.44L180.65 191.69C181.25 191.54 181.84 191.48 182.45 191.48C186.43 191.48 189.56 194.44 189.56 198.11ZM184.25 198.31C184.25 197.58 183.44 196.98 182.45 196.98C181.52 196.98 180.72 197.58 180.72 198.31L180.72 219.95L181.64 219.95C182.71 219.95 184.25 219.81 184.25 218.6L184.25 198.31ZM170.47 198.11L170.47 224.71C170.47 225.1 170.13 225.37 169.8 225.37L165.74 225.37C165.41 225.37 165.08 225.1 165.08 224.71L165.08 199.72C165.08 198.04 165.08 196.44 163.08 196.44C161.09 196.44 160.7 198.17 160.7 200.19L160.7 224.71C160.7 225.1 160.36 225.37 159.95 225.37L156.29 225.37C155.89 225.37 155.64 225.1 155.64 224.71L155.64 199.72C155.64 198.04 155.64 196.44 153.63 196.44C151.5 196.44 151.19 198.38 151.19 200.52L151.19 224.71C151.19 225.1 150.91 225.37 150.51 225.37L146.52 225.37C146.12 225.37 145.85 225.1 145.85 224.71L145.85 191.88C145.98 191.61 146.25 191.41 146.52 191.41C146.58 191.41 146.65 191.48 146.71 191.48C146.79 191.48 150.37 193.56 150.37 193.56C151.38 192.55 152.84 191.08 155.64 191.08C157.69 191.08 158.96 192.08 159.76 193.48C160.77 192.55 162.48 191.08 165.08 191.08C168.94 191.08 170.47 194.36 170.47 198.11ZM140.87 219.14C140.87 222.89 137.74 225.97 133.74 225.97C129.81 225.97 126.63 222.89 126.63 219.14L126.63 197.98C126.63 194.23 129.81 191.15 133.74 191.15C137.74 191.15 140.87 194.23 140.87 197.98L140.87 219.14ZM135.54 198.17C135.54 197.44 134.74 196.77 133.74 196.77C132.82 196.77 132 197.44 132 198.17L132 218.87C132 219.68 132.82 220.35 133.74 220.35C134.74 220.35 135.54 219.68 135.54 218.87L135.54 198.17Z" />
	<path id="Path 4649" class="shp1" d="M123.03 219.88L114.12 219.88L114.12 184.18C114.12 183.78 113.72 183.38 113.32 183.38L109.13 183.38C108.73 183.38 108.33 183.78 108.33 184.18L108.33 224.57C108.33 225.03 108.73 225.37 109.13 225.37L123.03 225.37C123.49 225.37 123.83 225.03 123.83 224.57L123.83 220.69C123.83 220.21 123.49 219.88 123.03 219.88ZM103.27 224.99C103.7 224.99 104.06 224.72 104.06 224.32L104.06 184C104.06 183.59 103.7 183.32 103.27 183.32L98.99 183.32C98.56 183.32 98.27 183.59 98.27 184L98.27 224.32C98.27 224.72 98.56 224.99 98.99 224.99L103.27 224.99Z" />
	<path id="Path 4650" class="shp2" d="M191.19 136.08C192.82 135.59 193.52 133.27 192.77 130.9C192.01 128.52 188.27 127.63 186.65 128.11C185.03 128.6 185.14 130.03 187.33 132.05C189.29 133.88 189.58 136.56 191.19 136.08ZM202.53 143.79C202.92 143.44 193.55 145.33 187.86 134.83C184.23 129.63 176.92 125.84 170.27 126.22C169.36 126.29 168.42 126.48 167.26 126.93C164.6 128.24 163.84 131.57 164.12 133.71C164.22 134.89 164.67 136.14 165.72 137.34C166.34 138.1 166.9 138.55 167.36 138.83C168.05 139.37 168.86 139.9 169.84 140.41C175.43 143.3 178.32 144.05 180.52 146.12C184.07 149.44 181.72 158.63 181.72 158.63C181.75 159.68 186.79 148.02 183.1 144.37C177.3 138.61 172.16 136.18 170.99 134.18C170.86 133.88 170.56 132.89 171.67 132.36C174.2 131.14 182.49 133.12 185.83 136.8C187.7 138.61 189.48 140.79 191.59 142.11C193.66 143.46 195.76 143.9 197.39 144.03C200.71 144.26 202.52 143.71 202.53 143.79Z" />
	<path id="Path 4651" fill-rule="evenodd" class="shp2" d="M160.99 174.16C154.27 171.36 151.34 162.99 154.43 155.48C157.52 147.96 165.47 144.14 172.2 146.94C178.92 149.73 181.85 158.11 178.76 165.62C177.01 169.88 173.7 172.95 169.94 174.31C176.79 173.63 184.54 173.18 192.41 173.31C186.89 169.91 184.68 162.33 187.51 155.48C190.61 147.96 198.55 144.14 205.28 146.94C212 149.73 214.94 158.11 211.85 165.62C210.23 169.55 207.28 172.47 203.88 173.96C209.63 174.55 215.23 175.56 220.38 177.14C220.38 177.14 201.3 175.66 145.89 177.91C145.89 177.91 153.24 176.29 163.97 174.97C162.96 174.83 161.96 174.57 160.99 174.16ZM170.97 149.94C165.72 147.75 159.51 150.74 157.11 156.6C154.69 162.45 156.98 168.97 162.22 171.15C167.46 173.35 173.67 170.36 176.08 164.5C178.5 158.65 176.21 152.12 170.97 149.94ZM204.05 149.94C198.8 147.75 192.59 150.74 190.19 156.6C187.78 162.45 190.07 168.97 195.3 171.15C200.54 173.35 206.74 170.36 209.16 164.5C211.58 158.65 209.29 152.12 204.05 149.94Z" />
</svg>